<?xml version="1.0" encoding="utf-8"?>
<!-- Svg Vector Icons : http://www.onlinewebfonts.com/icon -->
<!DOCTYPE svg PUBLIC "-//W3C//DTD SVG 1.1//EN" "http://www.w3.org/Graphics/SVG/1.1/DTD/svg11.dtd">
<svg version="1.1" xmlns="http://www.w3.org/2000/svg" xmlns:xlink="http://www.w3.org/1999/xlink" x="0px" y="0px" viewBox="0 0 256 256" enable-background="new 0 0 256 256" xml:space="preserve">
<metadata> Svg Vector Icons : http://www.onlinewebfonts.com/icon </metadata>
<g><g><g><path fill="#000000" d="M33,13.2C33,15,33,67.3,33,129.5c0,62.1,0,113.8,0.1,114.8v1.8h67.2h67.1l27.8-28l27.8-28v-90V10h-95H33V13.2z M213.6,101.4v82H187h-26.5V210v26.5h-59h-59V128V19.4H128h85.5V101.4z M206.5,193.1c0,0.1-8.2,8.4-18.3,18.4l-18.3,18.3v-18.5v-18.4h18.3C198.3,192.9,206.5,193,206.5,193.1z"/><path fill="#000000" d="M82.8,66.9C74.9,69.4,70,75.9,70,84c-0.1,5.6,1.7,9.4,5.9,13.3c8.8,8.1,22.4,5.5,28-5.3c1-1.9,1.4-3.9,1.6-7.3c0.2-4.2,0-5-1.7-8.4C99.9,68.3,91,64.3,82.8,66.9z M92.4,77c2.4,1.5,3.8,4.4,3.8,7.6c0,2.5-0.3,3.1-2.2,5.3c-1.9,2.1-2.7,2.4-5.2,2.7c-4,0.4-6.6-1.1-8.4-4.7c-1.7-3.3-1.4-6.1,0.9-8.8C84.2,75.5,88.9,74.7,92.4,77z"/><path fill="#000000" d="M142.4,118.1l-20.2,20.2l-9.6-9.6c-9.1-9.1-9.7-9.6-12-9.6c-2.2,0-2.8,0.5-20.4,18.2C63.7,153.7,62,155.6,62,157.4c0,2.6,2.2,4.8,4.8,4.8c1.7,0,3.5-1.6,17.9-15.9l15.9-15.9l9.8,9.7c8.8,8.8,10,9.7,11.7,9.7c1.9,0,3.6-1.6,22.4-20.4l20.4-20.4l10.3,10.4c5.7,5.7,11,10.7,11.9,11.2c4.1,2.1,8.2-2.4,5.9-6.5c-0.4-0.6-6.3-6.8-13.2-13.7c-12.2-12-12.7-12.5-14.9-12.5C162.7,97.9,162,98.4,142.4,118.1z"/></g></g></g>
</svg>